<?xml version="1.0" encoding="UTF-8"?>
<!DOCTYPE svg PUBLIC "-//W3C//DTD SVG 1.1//EN" "http://www.w3.org/Graphics/SVG/1.1/DTD/svg11.dtd">
<svg xmlns="http://www.w3.org/2000/svg" version="1.1" width="258px" height="768px" style="shape-rendering:geometricPrecision; text-rendering:geometricPrecision; image-rendering:optimizeQuality; fill-rule:evenodd; clip-rule:evenodd" xmlns:xlink="http://www.w3.org/1999/xlink">
<g><path style="opacity:1" fill="#840505" d="M 0.5,-0.5 C 86.1667,-0.5 171.833,-0.5 257.5,-0.5C 257.5,87.1667 257.5,174.833 257.5,262.5C 171.498,175.165 85.8314,87.4981 0.5,-0.5 Z"/></g>
<g><path style="opacity:1" fill="#1b1816" d="M -0.5,-0.5 C -0.166667,-0.5 0.166667,-0.5 0.5,-0.5C 85.8314,87.4981 171.498,175.165 257.5,262.5C 257.5,363.833 257.5,465.167 257.5,566.5C 189.549,632.784 122.215,699.784 55.5,767.5C 36.8333,767.5 18.1667,767.5 -0.5,767.5C -0.5,712.5 -0.5,657.5 -0.5,602.5C 50.8123,551.854 101.812,500.854 152.5,449.5C 101.812,398.146 50.8123,347.146 -0.5,296.5C -0.5,197.5 -0.5,98.5 -0.5,-0.5 Z"/></g>
<g><path style="opacity:1" fill="#850505" d="M -0.5,296.5 C 50.8123,347.146 101.812,398.146 152.5,449.5C 101.812,500.854 50.8123,551.854 -0.5,602.5C -0.5,500.5 -0.5,398.5 -0.5,296.5 Z"/></g>
<g><path style="opacity:1" fill="#840505" d="M 257.5,566.5 C 257.5,633.5 257.5,700.5 257.5,767.5C 190.167,767.5 122.833,767.5 55.5,767.5C 122.215,699.784 189.549,632.784 257.5,566.5 Z"/></g>
</svg>
