<svg version="1.1" id="Layer_1" xmlns="http://www.w3.org/2000/svg" xmlns:xlink="http://www.w3.org/1999/xlink" x="0px" y="0px"
	 width="100%" viewBox="0 0 298 318" enable-background="new 0 0 298 318" xml:space="preserve">
<path fill="#FF0101" opacity="1.000000" stroke="none" 
	d="
M295.062469,256.023865 
	C295.062469,274.454468 295.062469,292.390228 295.062469,310.964050 
	C280.535858,304.480774 266.607880,298.266541 252.681412,292.048981 
	C171.963684,256.011871 91.256950,219.950104 10.492925,184.017090 
	C6.969352,182.449402 5.554050,180.763519 5.645677,176.725983 
	C5.955633,163.067780 5.830079,149.397614 5.709363,135.733444 
	C5.684517,132.921036 6.338233,131.336716 9.161427,130.081741 
	C103.299042,88.235039 197.389389,46.282040 291.490143,4.352433 
	C292.516205,3.895246 293.588257,3.541390 294.901886,3.038636 
	C294.901886,25.368441 294.901886,47.324348 294.901886,69.898285 
	C219.993027,99.229790 144.876801,128.642487 70.796768,157.649460 
	C144.565430,186.112000 219.596710,215.061707 295.062469,244.179047 
	C295.062469,247.962646 295.062469,251.745834 295.062469,256.023865 
z"/>
</svg>